<svg xmlns="http://www.w3.org/2000/svg" viewBox="0 0 64 64">
  <path d="M17 19c-7-1-10 4-9 10 1 4 4 6 8 6m31-16c7-1 10 4 9 10-1 4-4 6-8 6" fill="#f3c95d" stroke="#171512" stroke-width="2.5" stroke-linecap="round"/>
  <path d="M15 34c0-13 7-22 17-22s17 9 17 22-7 20-17 20-17-7-17-20Z" fill="#f3c95d" stroke="#171512" stroke-width="2.5" stroke-linejoin="round"/>
  <circle cx="25" cy="31" r="2.2" fill="#171512"/>
  <circle cx="39" cy="31" r="2.2" fill="#171512"/>
  <ellipse cx="32" cy="40" rx="8" ry="6" fill="#fffdf7" stroke="#171512" stroke-width="2"/>
  <circle cx="32" cy="38" r="2.4" fill="#171512"/>
  <path d="M32 40v3m0 0c-2 0-3 1-4 2m4-2c2 0 3 1 4 2" fill="none" stroke="#171512" stroke-width="1.8" stroke-linecap="round"/>
</svg>
